<svg width="23" height="28" viewBox="0 0 23 28" fill="none" xmlns="http://www.w3.org/2000/svg">
<path d="M15.0299 27.2416H1.61037C0.805201 27.2416 3.05176e-05 26.3022 3.05176e-05 25.4971V10.7356C3.05176e-05 4.83102 4.96525 0 10.8698 0C19.5925 0 21.0687 6.17297 22.4106 12.0776C22.5448 12.8827 22.8132 13.6879 22.9474 14.3589C23.0816 14.7615 22.9474 15.2982 22.679 15.7008C22.4106 15.9692 22.008 16.3718 21.6054 16.3718H20.1293V20.1293C20.1293 21.6054 19.1899 23.2157 17.7138 23.2157H16.1034V25.4971C16.1034 26.3022 15.7009 27.2416 15.0299 27.2416ZM2.68393 24.5577H13.4195V21.4712C13.4195 20.666 14.2247 20.5318 15.0299 20.5318H17.4454V14.7615C17.4454 13.9563 18.2506 13.8221 19.0557 13.8221H19.9951C19.9951 13.8221 19.8609 13.1511 19.8609 12.8827C18.3848 6.30717 17.177 2.8181 10.8698 2.8181C6.44139 2.8181 2.68393 6.30717 2.68393 10.7356V24.5577Z" fill="#20AB99"/>
<path d="M11.0041 16.1031C11.0041 16.1031 16.3719 12.2114 16.3719 9.25916C16.3719 6.57526 12.2119 5.3675 11.0041 8.99077C9.79637 5.3675 5.63632 6.57526 5.63632 9.25916C5.63632 12.2114 11.0041 16.1031 11.0041 16.1031Z" fill="#20AB99"/>
</svg>
