<svg width="22" height="32" viewBox="0 0 22 32" fill="none" xmlns="http://www.w3.org/2000/svg">
<path d="M11.3144 25.1428C12.6162 25.1428 13.6715 24.0874 13.6715 22.7856C13.6715 21.4838 12.6162 20.4285 11.3144 20.4285C10.0126 20.4285 8.95723 21.4838 8.95723 22.7856C8.95723 24.0874 10.0126 25.1428 11.3144 25.1428Z" fill="#20AB99"/>
<path d="M18.8572 14.1429V7.85714C18.8572 3.45714 15.4 0 11 0C6.60003 0 3.14289 3.45714 3.14289 7.85714V14.1429C1.57146 14.1429 3.05176e-05 15.5571 3.05176e-05 17.2857V28.2857C3.05176e-05 30.0143 1.7286 31.9 3.45717 31.9H19.1715C20.9 31.9 22 30.0143 22 28.2857V17.2857C22 15.5571 20.4286 14.1429 18.8572 14.1429ZM6.28574 7.85714C6.28574 5.18571 8.3286 3.14286 11 3.14286C13.6715 3.14286 15.7143 5.18571 15.7143 7.85714V14.6143H6.28574V7.85714ZM3.14289 28.7571V17.7571H19.1715V28.7571H3.14289Z" fill="#20AB99"/>
</svg>
