<svg width="23" height="33" viewBox="0 0 23 33" fill="none" xmlns="http://www.w3.org/2000/svg">
<path d="M22.6715 0.328571C22.3429 0 21.85 0 21.3572 0H1.64289C1.15003 0 0.657173 0 0.328602 0.328571C3.05176e-05 0.821429 3.05176e-05 1.15 3.05176e-05 1.64286L3.28574 16.4286L6.57146 15.9357L3.61432 3.28571H8.54289L9.85717 9.85714H13.1429L14.4572 3.28571H19.3857L16.4286 15.9357L19.7143 16.5929L23 1.80714C23 1.31429 23 0.821429 22.6715 0.328571Z" fill="#20AB99"/>
<path d="M18.0712 32.3644C17.7426 32.3644 17.5783 32.3644 17.414 32.2002L11.4997 29.4073L5.58544 32.3644C5.09258 32.693 4.27115 32.5287 3.7783 32.2002C3.28544 31.8716 3.12115 31.2144 3.28544 30.5573L4.76401 24.643L1.80687 20.3716C1.4783 19.8787 1.4783 19.3859 1.80687 18.893C2.13544 18.2359 2.6283 18.0716 3.28544 18.0716H7.2283L10.0212 12.1573C10.514 11.0073 12.4854 11.1716 12.9783 12.3216L15.7712 18.0716H19.714C20.3712 18.0716 20.864 18.2359 21.1926 18.7287C21.5212 19.2216 21.5212 19.8787 21.1926 20.3716L18.2354 24.643L19.714 30.5573C19.8783 31.2144 19.714 31.8716 19.2212 32.2002C18.7283 32.3644 18.3997 32.3644 18.0712 32.3644ZM11.4997 25.793C11.8283 25.793 11.9926 25.793 12.1569 25.9573L15.6069 27.6002L14.7854 24.643C14.6212 24.1502 14.7854 23.9859 14.9497 23.493L16.5926 21.3573H14.7854C14.1283 21.3573 13.6354 20.8644 13.3069 20.2073L11.4997 16.4287L9.69258 20.2073C9.36401 20.8644 8.87115 21.3573 8.21401 21.3573H6.40687L8.04973 23.493C8.21401 23.8216 8.21401 24.3144 8.21401 24.643L7.39258 27.7644L10.8426 26.1216C11.0069 25.9573 11.1712 25.793 11.4997 25.793Z" fill="#20AB99"/>
</svg>
