<svg width="28" height="26" viewBox="0 0 28 26" fill="none" xmlns="http://www.w3.org/2000/svg">
<path d="M28 2.54558C28 1.14558 26.8546 0.00012207 25.4546 0.00012207H2.54549C1.14549 0.00012207 3.05176e-05 1.14558 3.05176e-05 2.54558V22.9092C3.05176e-05 24.3092 1.14549 25.4547 2.54549 25.4547H25.4546C26.8546 25.4547 28 24.3092 28 22.9092V2.54558ZM25.4546 5.09103H15.2728V2.54558H25.4546V5.09103ZM8.90912 5.09103V2.54558H12.7273V5.09103H8.90912ZM6.36367 2.54558V5.09103H2.54549V2.54558H6.36367ZM2.54549 22.9092V7.63649H25.7091V22.9092H2.54549Z" fill="#20AB99"/>
<path d="M21.6361 16.5457H15.2725V19.0911H21.6361V16.5457Z" fill="#20AB99"/>
<path d="M7.00003 11.9637L9.9273 14.891L7.00003 17.8182L8.78185 19.6001L13.4909 14.891L8.78185 10.1819L7.00003 11.9637Z" fill="#20AB99"/>
</svg>
