<svg width="28" height="38" viewBox="0 0 28 38" fill="none" xmlns="http://www.w3.org/2000/svg">
<path d="M25.0793 12.3849H23.2216V15.4811H24.7697V23.2217H3.09605V15.4811H4.64417V12.3849H3.40567C1.70275 12.3849 -0.000183105 13.3138 -0.000183105 15.0167V28.9497C-0.000183105 30.6527 1.70275 32.5104 3.40567 32.5104H12.3848V34.0585H7.7404V37.1548H20.1253V34.0585H15.481V32.5104H25.0793C26.7822 32.5104 27.8659 30.6527 27.8659 28.9497V15.0167C27.8659 13.3138 26.7822 12.3849 25.0793 12.3849ZM3.09605 29.4142V26.3179H24.7697V29.4142H3.09605Z" fill="#84F9EA"/>
<path d="M21.5185 11.4561L19.1963 9.2887L15.4809 12.8494V0H12.3846V12.8494L8.97877 9.2887L6.8114 11.4561L14.2424 18.7322L21.5185 11.4561Z" fill="#84F9EA"/>
</svg>
