<svg width="37" height="37" viewBox="0 0 37 37" fill="none" xmlns="http://www.w3.org/2000/svg">
<path d="M20.1255 27.2469C18.5774 27.7113 16.41 27.8661 13.9331 27.8661C6.96653 27.8661 3.09623 25.6987 3.09623 24.7699V22.6025C6.19247 23.9958 9.90795 24.7699 13.9331 24.7699C17.9582 24.7699 21.6736 23.9958 24.7699 22.6025V25.2343H27.8661V6.19247C27.8661 2.16736 20.8996 0 13.9331 0C6.96653 0 0 2.16736 0 6.19247V24.7699C0 28.795 6.96653 30.9623 13.9331 30.9623C16.1004 30.9623 18.5774 30.8075 20.1255 30.3431V27.2469ZM14.2427 3.09623C21.2092 3.09623 25.0795 5.2636 25.0795 6.19247C25.0795 7.12134 21.2092 9.2887 14.2427 9.2887C7.27615 9.2887 3.40586 7.12134 3.40586 6.19247C3.40586 5.2636 7.12134 3.09623 14.2427 3.09623ZM3.09623 10.2176C6.19247 11.6109 9.90795 12.3849 13.9331 12.3849C17.9582 12.3849 21.6736 11.6109 24.7699 10.2176V12.3849C24.7699 13.3138 20.8996 15.4812 13.9331 15.4812C6.96653 15.4812 3.09623 13.3138 3.09623 12.3849V10.2176ZM3.09623 16.41C6.19247 17.8033 9.90795 18.5774 13.9331 18.5774C17.9582 18.5774 21.6736 17.8033 24.7699 16.41V18.5774C24.7699 19.5063 20.8996 21.6736 13.9331 21.6736C6.96653 21.6736 3.09623 19.5063 3.09623 18.5774V16.41Z" fill="#84F9EA"/>
<path d="M28.1757 36.226L22.4477 30.498L24.6151 28.3306L28.1757 31.8913L34.8326 25.2344L37 27.4017L28.1757 36.226Z" fill="#84F9EA"/>
</svg>
